<svg viewBox="0 0 100 100" xmlns="http://www.w3.org/2000/svg">
  <g transform="rotate(-15 50 50)">
  <path d="M50 50C44.2 42.2 42 34.6 43.6 25.8C45.4 16.1 50.5 9.2 56.5 9.2C63.1 9.2 67.2 16.8 65.2 25.7C63.2 34.9 56.9 42.4 50 50Z"/>
  <path d="M50 50C44.2 42.2 42 34.6 43.6 25.8C45.4 16.1 50.5 9.2 56.5 9.2C63.1 9.2 67.2 16.8 65.2 25.7C63.2 34.9 56.9 42.4 50 50Z" transform="rotate(60 50 50)"/>
  <path d="M50 50C44.2 42.2 42 34.6 43.6 25.8C45.4 16.1 50.5 9.2 56.5 9.2C63.1 9.2 67.2 16.8 65.2 25.7C63.2 34.9 56.9 42.4 50 50Z" transform="rotate(120 50 50)"/>
  <path d="M50 50C44.2 42.2 42 34.6 43.6 25.8C45.4 16.1 50.5 9.2 56.5 9.2C63.1 9.2 67.2 16.8 65.2 25.7C63.2 34.9 56.9 42.4 50 50Z" transform="rotate(180 50 50)"/>
  <path d="M50 50C44.2 42.2 42 34.6 43.6 25.8C45.4 16.1 50.5 9.2 56.5 9.2C63.1 9.2 67.2 16.8 65.2 25.7C63.2 34.9 56.9 42.4 50 50Z" transform="rotate(240 50 50)"/>
  <path d="M50 50C44.2 42.2 42 34.6 43.6 25.8C45.4 16.1 50.5 9.2 56.5 9.2C63.1 9.2 67.2 16.8 65.2 25.7C63.2 34.9 56.9 42.4 50 50Z" transform="rotate(300 50 50)"/>
  </g>
</svg>
